<mxfile host="app.diagrams.net" modified="2023-03-11T05:59:37.359Z" agent="5.0 (Windows NT 10.0; Win64; x64) AppleWebKit/537.36 (KHTML, like Gecko) Chrome/110.0.0.0 Safari/537.36 Edg/110.0.1587.63" etag="iuWgMNA4vQZOV_HBYrMP" version="21.0.2" type="github">
  <diagram name="第 1 页" id="qvxEMMuhqJVMkdbjo-hX">
    <mxGraphModel dx="1387" dy="796" grid="1" gridSize="10" guides="1" tooltips="1" connect="1" arrows="1" fold="1" page="1" pageScale="1" pageWidth="827" pageHeight="1169" math="0" shadow="0">
      <root>
        <mxCell id="0" />
        <mxCell id="1" parent="0" />
        <mxCell id="d8FClQKH07QKKEI3IqTK-1" value="V" style="text;html=1;strokeColor=none;fillColor=none;align=center;verticalAlign=middle;whiteSpace=wrap;rounded=0;fontSize=24;" vertex="1" parent="1">
          <mxGeometry x="164" y="130" width="60" height="30" as="geometry" />
        </mxCell>
        <mxCell id="d8FClQKH07QKKEI3IqTK-2" value="1." style="text;html=1;strokeColor=none;fillColor=none;align=center;verticalAlign=middle;whiteSpace=wrap;rounded=0;fontSize=24;" vertex="1" parent="1">
          <mxGeometry x="237" y="130" width="60" height="30" as="geometry" />
        </mxCell>
        <mxCell id="d8FClQKH07QKKEI3IqTK-3" value="0." style="text;html=1;strokeColor=none;fillColor=none;align=center;verticalAlign=middle;whiteSpace=wrap;rounded=0;fontSize=24;" vertex="1" parent="1">
          <mxGeometry x="311" y="130" width="60" height="30" as="geometry" />
        </mxCell>
        <mxCell id="d8FClQKH07QKKEI3IqTK-4" value="0." style="text;html=1;strokeColor=none;fillColor=none;align=center;verticalAlign=middle;whiteSpace=wrap;rounded=0;fontSize=24;" vertex="1" parent="1">
          <mxGeometry x="384" y="130" width="60" height="30" as="geometry" />
        </mxCell>
        <mxCell id="d8FClQKH07QKKEI3IqTK-5" value="-RC." style="text;html=1;strokeColor=none;fillColor=none;align=center;verticalAlign=middle;whiteSpace=wrap;rounded=0;fontSize=24;" vertex="1" parent="1">
          <mxGeometry x="531" y="130" width="60" height="30" as="geometry" />
        </mxCell>
        <mxCell id="d8FClQKH07QKKEI3IqTK-6" value="213" style="text;html=1;strokeColor=none;fillColor=none;align=center;verticalAlign=middle;whiteSpace=wrap;rounded=0;fontSize=24;" vertex="1" parent="1">
          <mxGeometry x="457" y="130" width="60" height="30" as="geometry" />
        </mxCell>
        <mxCell id="d8FClQKH07QKKEI3IqTK-7" style="edgeStyle=orthogonalEdgeStyle;rounded=0;orthogonalLoop=1;jettySize=auto;html=1;exitX=0.5;exitY=1;exitDx=0;exitDy=0;fontSize=24;strokeColor=#2D7600;fillColor=#60a917;" edge="1" parent="1" source="d8FClQKH07QKKEI3IqTK-5" target="d8FClQKH07QKKEI3IqTK-5">
          <mxGeometry relative="1" as="geometry" />
        </mxCell>
        <mxCell id="d8FClQKH07QKKEI3IqTK-8" value="2" style="text;html=1;strokeColor=none;fillColor=none;align=center;verticalAlign=middle;whiteSpace=wrap;rounded=0;fontSize=24;" vertex="1" parent="1">
          <mxGeometry x="598.5" y="130" width="60" height="30" as="geometry" />
        </mxCell>
        <mxCell id="d8FClQKH07QKKEI3IqTK-21" style="edgeStyle=orthogonalEdgeStyle;rounded=0;orthogonalLoop=1;jettySize=auto;html=1;exitX=0.5;exitY=1;exitDx=0;exitDy=0;entryX=1;entryY=0.5;entryDx=0;entryDy=0;" edge="1" parent="1" source="d8FClQKH07QKKEI3IqTK-9" target="d8FClQKH07QKKEI3IqTK-15">
          <mxGeometry relative="1" as="geometry" />
        </mxCell>
        <mxCell id="d8FClQKH07QKKEI3IqTK-9" value="" style="rounded=0;whiteSpace=wrap;html=1;strokeColor=#2D7600;fillColor=#60a917;fontColor=#ffffff;" vertex="1" parent="1">
          <mxGeometry x="237" y="160" width="49" height="10" as="geometry" />
        </mxCell>
        <mxCell id="d8FClQKH07QKKEI3IqTK-22" style="edgeStyle=orthogonalEdgeStyle;rounded=0;orthogonalLoop=1;jettySize=auto;html=1;exitX=0.5;exitY=1;exitDx=0;exitDy=0;entryX=1;entryY=0.5;entryDx=0;entryDy=0;" edge="1" parent="1" source="d8FClQKH07QKKEI3IqTK-10" target="d8FClQKH07QKKEI3IqTK-16">
          <mxGeometry relative="1" as="geometry" />
        </mxCell>
        <mxCell id="d8FClQKH07QKKEI3IqTK-10" value="" style="rounded=0;whiteSpace=wrap;html=1;strokeColor=#2D7600;fillColor=#60a917;fontColor=#ffffff;" vertex="1" parent="1">
          <mxGeometry x="311" y="160" width="49" height="10" as="geometry" />
        </mxCell>
        <mxCell id="d8FClQKH07QKKEI3IqTK-23" style="edgeStyle=orthogonalEdgeStyle;rounded=0;orthogonalLoop=1;jettySize=auto;html=1;exitX=0.5;exitY=1;exitDx=0;exitDy=0;entryX=1;entryY=0.5;entryDx=0;entryDy=0;" edge="1" parent="1" source="d8FClQKH07QKKEI3IqTK-11" target="d8FClQKH07QKKEI3IqTK-17">
          <mxGeometry relative="1" as="geometry" />
        </mxCell>
        <mxCell id="d8FClQKH07QKKEI3IqTK-11" value="" style="rounded=0;whiteSpace=wrap;html=1;strokeColor=#2D7600;fillColor=#60a917;fontColor=#ffffff;" vertex="1" parent="1">
          <mxGeometry x="384" y="160" width="49" height="10" as="geometry" />
        </mxCell>
        <mxCell id="d8FClQKH07QKKEI3IqTK-24" style="edgeStyle=orthogonalEdgeStyle;rounded=0;orthogonalLoop=1;jettySize=auto;html=1;exitX=0.5;exitY=1;exitDx=0;exitDy=0;entryX=1;entryY=0.5;entryDx=0;entryDy=0;" edge="1" parent="1" source="d8FClQKH07QKKEI3IqTK-12" target="d8FClQKH07QKKEI3IqTK-18">
          <mxGeometry relative="1" as="geometry" />
        </mxCell>
        <mxCell id="d8FClQKH07QKKEI3IqTK-12" value="" style="rounded=0;whiteSpace=wrap;html=1;strokeColor=#2D7600;fillColor=#60a917;fontColor=#ffffff;" vertex="1" parent="1">
          <mxGeometry x="457" y="160" width="49" height="10" as="geometry" />
        </mxCell>
        <mxCell id="d8FClQKH07QKKEI3IqTK-25" style="edgeStyle=orthogonalEdgeStyle;rounded=0;orthogonalLoop=1;jettySize=auto;html=1;exitX=0.5;exitY=1;exitDx=0;exitDy=0;entryX=1;entryY=0.5;entryDx=0;entryDy=0;" edge="1" parent="1" source="d8FClQKH07QKKEI3IqTK-13" target="d8FClQKH07QKKEI3IqTK-19">
          <mxGeometry relative="1" as="geometry" />
        </mxCell>
        <mxCell id="d8FClQKH07QKKEI3IqTK-13" value="" style="rounded=0;whiteSpace=wrap;html=1;strokeColor=#2D7600;fillColor=#60a917;fontColor=#ffffff;" vertex="1" parent="1">
          <mxGeometry x="531" y="160" width="49" height="10" as="geometry" />
        </mxCell>
        <mxCell id="d8FClQKH07QKKEI3IqTK-26" style="edgeStyle=orthogonalEdgeStyle;rounded=0;orthogonalLoop=1;jettySize=auto;html=1;exitX=0.5;exitY=1;exitDx=0;exitDy=0;entryX=1;entryY=0.5;entryDx=0;entryDy=0;" edge="1" parent="1" source="d8FClQKH07QKKEI3IqTK-14" target="d8FClQKH07QKKEI3IqTK-20">
          <mxGeometry relative="1" as="geometry" />
        </mxCell>
        <mxCell id="d8FClQKH07QKKEI3IqTK-14" value="" style="rounded=0;whiteSpace=wrap;html=1;strokeColor=#2D7600;fillColor=#60a917;fontColor=#ffffff;" vertex="1" parent="1">
          <mxGeometry x="604" y="160" width="49" height="10" as="geometry" />
        </mxCell>
        <mxCell id="d8FClQKH07QKKEI3IqTK-15" value="Major:主版本号" style="rounded=0;whiteSpace=wrap;html=1;fillColor=#60a917;fontColor=#ffffff;strokeColor=none;" vertex="1" parent="1">
          <mxGeometry x="80" y="240" width="100" height="40" as="geometry" />
        </mxCell>
        <mxCell id="d8FClQKH07QKKEI3IqTK-16" value="Minor:副版本号" style="rounded=0;whiteSpace=wrap;html=1;fillColor=#0050ef;fontColor=#ffffff;strokeColor=none;" vertex="1" parent="1">
          <mxGeometry x="80" y="300" width="100" height="40" as="geometry" />
        </mxCell>
        <mxCell id="d8FClQKH07QKKEI3IqTK-17" value="Patch:修订号" style="rounded=0;whiteSpace=wrap;html=1;fillColor=#f8cecc;strokeColor=none;" vertex="1" parent="1">
          <mxGeometry x="80" y="360" width="100" height="40" as="geometry" />
        </mxCell>
        <mxCell id="d8FClQKH07QKKEI3IqTK-18" value="Hash:版本哈希值" style="rounded=0;whiteSpace=wrap;html=1;fillColor=#cce5ff;strokeColor=none;" vertex="1" parent="1">
          <mxGeometry x="80" y="420" width="100" height="40" as="geometry" />
        </mxCell>
        <mxCell id="d8FClQKH07QKKEI3IqTK-19" value="预发布类型" style="rounded=0;whiteSpace=wrap;html=1;fillColor=#cce5ff;strokeColor=none;" vertex="1" parent="1">
          <mxGeometry x="80" y="480" width="100" height="40" as="geometry" />
        </mxCell>
        <mxCell id="d8FClQKH07QKKEI3IqTK-20" value="预发布版本号" style="rounded=0;whiteSpace=wrap;html=1;fillColor=#cce5ff;strokeColor=none;" vertex="1" parent="1">
          <mxGeometry x="80" y="544.5" width="100" height="40" as="geometry" />
        </mxCell>
      </root>
    </mxGraphModel>
  </diagram>
</mxfile>
